# xmcd
#
# Track frame offsets: 
#        150
#        15467
#        34712
#        48562
#        61387
#        73485
#        91085
#        107892
#        125320
#        138887
#
# Disc length: 2078 seconds
#
# Revision: 3
# Processed by: cddbd v1.4PL0 Copyright (c) Steve Scherf et al.
# Submitted via: ExactAudioCopy v0.90b3
#
DISCID=86081c0a
DTITLE=The Judds - Rockin' With The Rhythm
DYEAR=1985
DGENRE=Country
TTITLE0=Have Mercy
TTITLE1=Grandpa (Tell Me 'Bout The Good Old Days)
TTITLE2=Working In The Coal Mine
TTITLE3=If I Were You
TTITLE4=Rockin' With The Rythm Of The Rain
TTITLE5=Tears For You
TTITLE6=Cry Myself To Sleep
TTITLE7=River Roll On
TTITLE8=I Wish She Wouldn't Treat You That Way
TTITLE9=Dream Chaser
EXTD=
EXTT0=
EXTT1=Tell Me 'Bout The Good Old Days
EXTT2=
EXTT3=
EXTT4=
EXTT5=
EXTT6=
EXTT7=
EXTT8=
EXTT9=
PLAYORDER=
